<mxfile host="app.diagrams.net" modified="2024-04-07T18:24:57.030Z" agent="Mozilla/5.0 (Windows NT 10.0; Win64; x64) AppleWebKit/537.36 (KHTML, like Gecko) Chrome/123.0.0.0 Safari/537.36 Edg/123.0.0.0" etag="doOrGrJJTqM9GiPZXC-B" version="24.2.2" type="google">
  <diagram name="Page-1" id="929967ad-93f9-6ef4-fab6-5d389245f69c">
    <mxGraphModel grid="1" page="1" gridSize="10" guides="1" tooltips="1" connect="1" arrows="1" fold="1" pageScale="1.5" pageWidth="1169" pageHeight="826" background="none" math="0" shadow="0">
      <root>
        <mxCell id="0" style=";html=1;" />
        <mxCell id="1" style=";html=1;" parent="0" />
        <mxCell id="xzB-ye9xKBvhit1CvHdw-15" style="edgeStyle=orthogonalEdgeStyle;rounded=0;orthogonalLoop=1;jettySize=auto;html=1;exitX=1;exitY=0.3333333333333333;exitDx=0;exitDy=0;exitPerimeter=0;entryX=0;entryY=0.5;entryDx=0;entryDy=0;" edge="1" parent="1" source="xzB-ye9xKBvhit1CvHdw-1" target="xzB-ye9xKBvhit1CvHdw-8">
          <mxGeometry relative="1" as="geometry" />
        </mxCell>
        <mxCell id="xzB-ye9xKBvhit1CvHdw-22" style="edgeStyle=orthogonalEdgeStyle;rounded=0;orthogonalLoop=1;jettySize=auto;html=1;exitX=1;exitY=0.3333333333333333;exitDx=0;exitDy=0;exitPerimeter=0;entryX=0;entryY=0.5;entryDx=0;entryDy=0;" edge="1" parent="1" source="xzB-ye9xKBvhit1CvHdw-1" target="xzB-ye9xKBvhit1CvHdw-9">
          <mxGeometry relative="1" as="geometry" />
        </mxCell>
        <mxCell id="MZFfsp8Y0-jmR-dR5T9A-8" style="edgeStyle=orthogonalEdgeStyle;rounded=0;orthogonalLoop=1;jettySize=auto;html=1;exitX=1;exitY=0.3333333333333333;exitDx=0;exitDy=0;exitPerimeter=0;entryX=0;entryY=0.5;entryDx=0;entryDy=0;" edge="1" parent="1" source="xzB-ye9xKBvhit1CvHdw-1" target="MZFfsp8Y0-jmR-dR5T9A-4">
          <mxGeometry relative="1" as="geometry" />
        </mxCell>
        <mxCell id="MZFfsp8Y0-jmR-dR5T9A-10" style="edgeStyle=orthogonalEdgeStyle;rounded=0;orthogonalLoop=1;jettySize=auto;html=1;exitX=1;exitY=0.3333333333333333;exitDx=0;exitDy=0;exitPerimeter=0;entryX=0;entryY=0.5;entryDx=0;entryDy=0;" edge="1" parent="1" source="xzB-ye9xKBvhit1CvHdw-1" target="MZFfsp8Y0-jmR-dR5T9A-6">
          <mxGeometry relative="1" as="geometry" />
        </mxCell>
        <mxCell id="xzB-ye9xKBvhit1CvHdw-1" value="Utilizator" style="shape=umlActor;verticalLabelPosition=bottom;verticalAlign=top;html=1;" vertex="1" parent="1">
          <mxGeometry x="510" y="510" width="30" height="60" as="geometry" />
        </mxCell>
        <mxCell id="xzB-ye9xKBvhit1CvHdw-27" style="edgeStyle=orthogonalEdgeStyle;rounded=0;orthogonalLoop=1;jettySize=auto;html=1;exitX=0;exitY=0.3333333333333333;exitDx=0;exitDy=0;exitPerimeter=0;entryX=1;entryY=0.5;entryDx=0;entryDy=0;" edge="1" parent="1" source="xzB-ye9xKBvhit1CvHdw-2" target="xzB-ye9xKBvhit1CvHdw-12">
          <mxGeometry relative="1" as="geometry">
            <mxPoint x="1000" y="810" as="targetPoint" />
            <Array as="points">
              <mxPoint x="990" y="640" />
              <mxPoint x="990" y="785" />
            </Array>
          </mxGeometry>
        </mxCell>
        <mxCell id="MZFfsp8Y0-jmR-dR5T9A-3" style="edgeStyle=orthogonalEdgeStyle;rounded=0;orthogonalLoop=1;jettySize=auto;html=1;exitX=0.25;exitY=0.1;exitDx=0;exitDy=0;exitPerimeter=0;entryX=1;entryY=0.5;entryDx=0;entryDy=0;" edge="1" parent="1" source="xzB-ye9xKBvhit1CvHdw-2" target="xzB-ye9xKBvhit1CvHdw-7">
          <mxGeometry relative="1" as="geometry">
            <Array as="points">
              <mxPoint x="1020" y="626" />
              <mxPoint x="1020" y="435" />
            </Array>
          </mxGeometry>
        </mxCell>
        <mxCell id="xzB-ye9xKBvhit1CvHdw-2" value="Administrator" style="shape=umlActor;verticalLabelPosition=bottom;verticalAlign=top;html=1;" vertex="1" parent="1">
          <mxGeometry x="1040" y="620" width="30" height="60" as="geometry" />
        </mxCell>
        <mxCell id="xzB-ye9xKBvhit1CvHdw-35" style="edgeStyle=orthogonalEdgeStyle;rounded=0;orthogonalLoop=1;jettySize=auto;html=1;exitX=0;exitY=0.3333333333333333;exitDx=0;exitDy=0;exitPerimeter=0;entryX=1;entryY=0.5;entryDx=0;entryDy=0;" edge="1" parent="1" source="xzB-ye9xKBvhit1CvHdw-3" target="xzB-ye9xKBvhit1CvHdw-10">
          <mxGeometry relative="1" as="geometry" />
        </mxCell>
        <mxCell id="xzB-ye9xKBvhit1CvHdw-36" style="edgeStyle=orthogonalEdgeStyle;rounded=0;orthogonalLoop=1;jettySize=auto;html=1;exitX=0;exitY=0.3333333333333333;exitDx=0;exitDy=0;exitPerimeter=0;entryX=1;entryY=0.5;entryDx=0;entryDy=0;" edge="1" parent="1" source="xzB-ye9xKBvhit1CvHdw-3" target="xzB-ye9xKBvhit1CvHdw-11">
          <mxGeometry relative="1" as="geometry">
            <Array as="points">
              <mxPoint x="930" y="540" />
              <mxPoint x="930" y="715" />
            </Array>
          </mxGeometry>
        </mxCell>
        <mxCell id="xzB-ye9xKBvhit1CvHdw-3" value="Angajat" style="shape=umlActor;verticalLabelPosition=bottom;verticalAlign=top;html=1;" vertex="1" parent="1">
          <mxGeometry x="980" y="520" width="30" height="60" as="geometry" />
        </mxCell>
        <mxCell id="xzB-ye9xKBvhit1CvHdw-4" value="" style="html=1;whiteSpace=wrap;" vertex="1" parent="1">
          <mxGeometry x="680" y="190" width="140" height="700" as="geometry" />
        </mxCell>
        <mxCell id="xzB-ye9xKBvhit1CvHdw-7" value="Inregistrare" style="ellipse;whiteSpace=wrap;html=1;" vertex="1" parent="1">
          <mxGeometry x="680" y="400" width="140" height="70" as="geometry" />
        </mxCell>
        <mxCell id="xzB-ye9xKBvhit1CvHdw-8" value="Autentificare" style="ellipse;whiteSpace=wrap;html=1;" vertex="1" parent="1">
          <mxGeometry x="680" y="470" width="140" height="70" as="geometry" />
        </mxCell>
        <mxCell id="xzB-ye9xKBvhit1CvHdw-9" value="Rezerva bilete" style="ellipse;whiteSpace=wrap;html=1;" vertex="1" parent="1">
          <mxGeometry x="680" y="540" width="140" height="70" as="geometry" />
        </mxCell>
        <mxCell id="xzB-ye9xKBvhit1CvHdw-10" value="CheckIn Pasageri" style="ellipse;whiteSpace=wrap;html=1;" vertex="1" parent="1">
          <mxGeometry x="680" y="610" width="140" height="70" as="geometry" />
        </mxCell>
        <mxCell id="xzB-ye9xKBvhit1CvHdw-11" value="Genereaza raportul zborului" style="ellipse;whiteSpace=wrap;html=1;" vertex="1" parent="1">
          <mxGeometry x="680" y="680" width="140" height="70" as="geometry" />
        </mxCell>
        <mxCell id="xzB-ye9xKBvhit1CvHdw-12" value="Actualizaeaza cont angajat" style="ellipse;whiteSpace=wrap;html=1;" vertex="1" parent="1">
          <mxGeometry x="680" y="750" width="140" height="70" as="geometry" />
        </mxCell>
        <mxCell id="xzB-ye9xKBvhit1CvHdw-13" value="Actualizeaza zbor" style="ellipse;whiteSpace=wrap;html=1;" vertex="1" parent="1">
          <mxGeometry x="680" y="820" width="140" height="70" as="geometry" />
        </mxCell>
        <mxCell id="xzB-ye9xKBvhit1CvHdw-14" value="" style="line;strokeWidth=1;fillColor=none;align=left;verticalAlign=middle;spacingTop=-1;spacingLeft=3;spacingRight=3;rotatable=0;labelPosition=right;points=[];portConstraint=eastwest;strokeColor=inherit;" vertex="1" parent="1">
          <mxGeometry x="730" y="480" width="40" height="8" as="geometry" />
        </mxCell>
        <mxCell id="xzB-ye9xKBvhit1CvHdw-16" value="" style="line;strokeWidth=1;fillColor=none;align=left;verticalAlign=middle;spacingTop=-1;spacingLeft=3;spacingRight=3;rotatable=0;labelPosition=right;points=[];portConstraint=eastwest;strokeColor=inherit;" vertex="1" parent="1">
          <mxGeometry x="730" y="480" width="40" height="8" as="geometry" />
        </mxCell>
        <mxCell id="xzB-ye9xKBvhit1CvHdw-21" style="edgeStyle=orthogonalEdgeStyle;rounded=0;orthogonalLoop=1;jettySize=auto;html=1;exitX=1;exitY=0.3333333333333333;exitDx=0;exitDy=0;exitPerimeter=0;entryX=0;entryY=0.5;entryDx=0;entryDy=0;" edge="1" parent="1" source="xzB-ye9xKBvhit1CvHdw-1" target="xzB-ye9xKBvhit1CvHdw-7">
          <mxGeometry relative="1" as="geometry" />
        </mxCell>
        <mxCell id="MZFfsp8Y0-jmR-dR5T9A-7" value="Text" style="edgeLabel;html=1;align=center;verticalAlign=middle;resizable=0;points=[];" connectable="0" vertex="1" parent="xzB-ye9xKBvhit1CvHdw-21">
          <mxGeometry x="0.6428" y="-4" relative="1" as="geometry">
            <mxPoint x="-1" as="offset" />
          </mxGeometry>
        </mxCell>
        <mxCell id="xzB-ye9xKBvhit1CvHdw-32" style="edgeStyle=orthogonalEdgeStyle;rounded=0;orthogonalLoop=1;jettySize=auto;html=1;exitX=0;exitY=0.3333333333333333;exitDx=0;exitDy=0;exitPerimeter=0;entryX=0.99;entryY=0.928;entryDx=0;entryDy=0;entryPerimeter=0;" edge="1" parent="1" source="xzB-ye9xKBvhit1CvHdw-2" target="xzB-ye9xKBvhit1CvHdw-4">
          <mxGeometry relative="1" as="geometry">
            <Array as="points">
              <mxPoint x="1010" y="640" />
              <mxPoint x="1010" y="855" />
            </Array>
          </mxGeometry>
        </mxCell>
        <mxCell id="xzB-ye9xKBvhit1CvHdw-33" style="edgeStyle=orthogonalEdgeStyle;rounded=0;orthogonalLoop=1;jettySize=auto;html=1;exitX=0;exitY=0.3333333333333333;exitDx=0;exitDy=0;exitPerimeter=0;entryX=0.99;entryY=0.645;entryDx=0;entryDy=0;entryPerimeter=0;" edge="1" parent="1" source="xzB-ye9xKBvhit1CvHdw-3" target="xzB-ye9xKBvhit1CvHdw-8">
          <mxGeometry relative="1" as="geometry" />
        </mxCell>
        <mxCell id="MZFfsp8Y0-jmR-dR5T9A-4" value="Plateste zbor" style="ellipse;whiteSpace=wrap;html=1;" vertex="1" parent="1">
          <mxGeometry x="680" y="330" width="140" height="70" as="geometry" />
        </mxCell>
        <mxCell id="MZFfsp8Y0-jmR-dR5T9A-5" value="Adauga zbor in cos" style="ellipse;whiteSpace=wrap;html=1;" vertex="1" parent="1">
          <mxGeometry x="680" y="260" width="140" height="70" as="geometry" />
        </mxCell>
        <mxCell id="MZFfsp8Y0-jmR-dR5T9A-6" value="Cauta zboruri" style="ellipse;whiteSpace=wrap;html=1;" vertex="1" parent="1">
          <mxGeometry x="680" y="190" width="140" height="70" as="geometry" />
        </mxCell>
        <mxCell id="MZFfsp8Y0-jmR-dR5T9A-9" style="edgeStyle=orthogonalEdgeStyle;rounded=0;orthogonalLoop=1;jettySize=auto;html=1;exitX=1;exitY=0.3333333333333333;exitDx=0;exitDy=0;exitPerimeter=0;entryX=0.012;entryY=0.154;entryDx=0;entryDy=0;entryPerimeter=0;" edge="1" parent="1" source="xzB-ye9xKBvhit1CvHdw-1" target="xzB-ye9xKBvhit1CvHdw-4">
          <mxGeometry relative="1" as="geometry" />
        </mxCell>
      </root>
    </mxGraphModel>
  </diagram>
</mxfile>
